<svg xmlns="http://www.w3.org/2000/svg" viewBox="0 0 102.56 240.94"><defs><style>.cls-1{fill:#251c1c;}</style></defs><g id="Layer_2" data-name="Layer 2"><g id="Layer_1-2" data-name="Layer 1"><path class="cls-1" d="M101.72,166.14,94.46,166a1.21,1.21,0,0,1-1.16-1l-1-5.61a1.43,1.43,0,0,0-1.39-1.2l-12-.16a1.68,1.68,0,0,1-1.28-.63l-.9-1.15a2,2,0,0,0-1.8-.74l-.8.1a2.17,2.17,0,0,1-1.88-.7l-2.53-2.76a2.77,2.77,0,0,1-.71-1.8l-.17-15.26,0-.47a142.91,142.91,0,0,0,.93-16.28c0-3.12-.11-6.24-.31-9.35a52.66,52.66,0,0,1,.15-8.79l.13-1.2a73.39,73.39,0,0,0,.37-7.41.54.54,0,0,1,.76-.48l.77.37a.84.84,0,0,0,.34.08.83.83,0,0,0,.75-.48,2.39,2.39,0,0,0,.15-1.58L69.52,75.84a14.58,14.58,0,0,1-.43-3l0-.71a2.62,2.62,0,0,1,.2-1.1l.42-1a1.67,1.67,0,0,1,1.28-1l.6-.07a5.15,5.15,0,0,0,3.69-2.36,13.74,13.74,0,0,0,2.08-7,13.35,13.35,0,0,0-.68-4.48L76,53.23a2.72,2.72,0,0,1,.21-2.18l2-3.62a5.31,5.31,0,0,0,.66-2V45.3a1.77,1.77,0,0,0-1.54-1.95l-.25,0a1.65,1.65,0,0,0-1.55.7l-1.08,1.58a47.14,47.14,0,0,0-2.92-11.26l-.71-1.78A5.18,5.18,0,0,0,67,29.38L61.55,28.3a5.7,5.7,0,0,1-3.9-2.88L56,22.32a3.73,3.73,0,0,1-.44-1.57L55.45,19a3.63,3.63,0,0,1,.63-2.23l1.74-2.53a2.6,2.6,0,0,0,.43-1.11,3.52,3.52,0,0,0,0-.56,4,4,0,0,0-.83-2.45,2.8,2.8,0,0,1-.56-1.67V6.22a3.57,3.57,0,0,0-.4-1.63l-.74-1.4a3,3,0,0,0-2.37-1.57l-2-.18A3.53,3.53,0,0,1,50,1.06L49.74.91A8.33,8.33,0,0,0,42.61.7,7.5,7.5,0,0,0,39,4.07l-.54,1a3.17,3.17,0,0,0,0,2.92l1.4,2.72a1.39,1.39,0,0,1,.15.63,1.42,1.42,0,0,1-.25.79,1.86,1.86,0,0,0,0,2.08l.44.7a3.54,3.54,0,0,1,.57,2l0,1.45a4.13,4.13,0,0,0,1,2.69l1.09,1.29a6.86,6.86,0,0,1,1.54,3.49,1.26,1.26,0,0,1-.58,1.25l-1.85,1.19A12.73,12.73,0,0,1,37.51,30l-5,1a3.81,3.81,0,0,0-2.85,2.51l-1.34,4a9.81,9.81,0,0,0-.51,2.63L27.66,43a12.63,12.63,0,0,1-1,4.32L20.31,61.92l1.06.36-3.27,3.5a2.72,2.72,0,0,1-1.64.84A6,6,0,0,0,13,68.33l-.86.86L6.27,72.33a2.62,2.62,0,0,0-1.2,1.38l-.29.78.3.19A3.06,3.06,0,0,0,6.85,74l.45-.37a2.34,2.34,0,0,1,1.08-.48L9.53,73l-.1.77a1.58,1.58,0,0,1-.67,1.11L6.52,76.43a1.93,1.93,0,0,1-1.1.34l-2.62,0a1.66,1.66,0,0,0-1.19.5.79.79,0,0,0,.47,1.34l7.63.91a2.42,2.42,0,0,1,1.87,1.29l.17.32a1.78,1.78,0,0,0,2.26.83l7.88-3.22a16.11,16.11,0,0,0,3.25-1.8L31.09,72a.52.52,0,0,1,.86.43L31.27,85.1A6.66,6.66,0,0,1,30.85,87l-1.09,2.8a2,2,0,0,0,1.12,2.61l2.6,1.08a1.08,1.08,0,0,1,.66,1.11c-.28,2.67-1.2,11.25-1.3,12.84-.13,1.89,1,3.16.76,11.8-.26,9.93,1.07,26,.94,28.87a34.66,34.66,0,0,1-.76,6,1,1,0,0,1-.93.74H27a.69.69,0,0,0-.69.69v1.25a.35.35,0,0,1-.33.36l-15.77,1.56a.61.61,0,0,0-.56.63l.22,6.45a.53.53,0,0,1-.53.55H1.48A1.49,1.49,0,0,0,0,167.77v6.6a2.42,2.42,0,0,0,.19,1l4,9.29a1,1,0,0,0,.93.61h5.4L6.94,240.94H95.36L92,184.49a.68.68,0,0,1,.82-.71l4.09.9a1.28,1.28,0,0,0,1.47-.82l3.09-8.61a18.47,18.47,0,0,0,1.08-6.25v-2A.86.86,0,0,0,101.72,166.14ZM57.05,134.78c-.1,1.84-.15,3.69-.15,5.54v14.75H44.58l1.33-12.41.5-4.12c.23-2,.38-4,.42-6l0-1.72c.06-2.41.21-4.81.47-7.2l.36-3.28a26.59,26.59,0,0,1,1.14-5.28l1-3a8,8,0,0,0,.39-2.17l.18-4.21a14.17,14.17,0,0,1,.36-2.59l.3-1.29a.46.46,0,0,1,.81-.18l1.28,1.67A5.26,5.26,0,0,1,54.23,106l.26,2.13-.64,2.84a7.63,7.63,0,0,0,.15,3.94l.2.63a8.26,8.26,0,0,1,.35,1.9l.36,6.39a8.69,8.69,0,0,0,.78,3.13l1.09,2.35a4.84,4.84,0,0,1,.44,2.28Z"/></g></g></svg>